<mxfile host="app.diagrams.net" modified="2024-05-21T11:01:11.539Z" agent="Mozilla/5.0 (Windows NT 10.0; Win64; x64) AppleWebKit/537.36 (KHTML, like Gecko) Chrome/125.0.0.0 Safari/537.36 Edg/125.0.0.0" etag="ZDZxjvusUSlx5NKTUoqA" version="24.4.4" type="github">
  <diagram name="第 1 页" id="89fhS6YGs88sALQLy5U-">
    <mxGraphModel dx="1282" dy="1746" grid="1" gridSize="10" guides="1" tooltips="1" connect="1" arrows="1" fold="1" page="1" pageScale="1" pageWidth="827" pageHeight="1169" math="0" shadow="0">
      <root>
        <mxCell id="0" />
        <mxCell id="1" parent="0" />
        <mxCell id="Yw1VdwutxBJmgak6ayX9-1" value="&lt;font style=&quot;font-size: 14px;&quot;&gt;系统管理员&lt;/font&gt;" style="shape=umlActor;verticalLabelPosition=bottom;verticalAlign=top;html=1;outlineConnect=0;" vertex="1" parent="1">
          <mxGeometry x="80" y="270" width="30" height="60" as="geometry" />
        </mxCell>
        <mxCell id="Yw1VdwutxBJmgak6ayX9-4" value="&lt;font style=&quot;font-size: 14px;&quot;&gt;管理用户&lt;/font&gt;" style="ellipse;whiteSpace=wrap;html=1;" vertex="1" parent="1">
          <mxGeometry x="294" y="20" width="120" height="80" as="geometry" />
        </mxCell>
        <mxCell id="Yw1VdwutxBJmgak6ayX9-5" value="&lt;font style=&quot;font-size: 14px;&quot;&gt;管理物种&lt;/font&gt;" style="ellipse;whiteSpace=wrap;html=1;" vertex="1" parent="1">
          <mxGeometry x="293.5" y="170" width="120" height="80" as="geometry" />
        </mxCell>
        <mxCell id="Yw1VdwutxBJmgak6ayX9-6" value="&lt;font style=&quot;font-size: 14px;&quot;&gt;管理活动&lt;/font&gt;" style="ellipse;whiteSpace=wrap;html=1;" vertex="1" parent="1">
          <mxGeometry x="294" y="330" width="120" height="80" as="geometry" />
        </mxCell>
        <mxCell id="Yw1VdwutxBJmgak6ayX9-7" value="&lt;font style=&quot;font-size: 14px;&quot;&gt;管理商品&lt;/font&gt;" style="ellipse;whiteSpace=wrap;html=1;" vertex="1" parent="1">
          <mxGeometry x="294" y="490" width="120" height="80" as="geometry" />
        </mxCell>
        <mxCell id="Yw1VdwutxBJmgak6ayX9-9" value="" style="endArrow=classic;html=1;rounded=0;exitX=1;exitY=0.3333333333333333;exitDx=0;exitDy=0;exitPerimeter=0;entryX=0;entryY=0.5;entryDx=0;entryDy=0;" edge="1" parent="1" source="Yw1VdwutxBJmgak6ayX9-1" target="Yw1VdwutxBJmgak6ayX9-4">
          <mxGeometry width="50" height="50" relative="1" as="geometry">
            <mxPoint x="50" y="480" as="sourcePoint" />
            <mxPoint x="100" y="430" as="targetPoint" />
          </mxGeometry>
        </mxCell>
        <mxCell id="Yw1VdwutxBJmgak6ayX9-10" value="" style="endArrow=classic;html=1;rounded=0;exitX=1;exitY=0.3333333333333333;exitDx=0;exitDy=0;exitPerimeter=0;entryX=0;entryY=0.5;entryDx=0;entryDy=0;" edge="1" parent="1" source="Yw1VdwutxBJmgak6ayX9-1" target="Yw1VdwutxBJmgak6ayX9-5">
          <mxGeometry width="50" height="50" relative="1" as="geometry">
            <mxPoint x="160" y="420" as="sourcePoint" />
            <mxPoint x="210" y="370" as="targetPoint" />
          </mxGeometry>
        </mxCell>
        <mxCell id="Yw1VdwutxBJmgak6ayX9-11" value="" style="endArrow=classic;html=1;rounded=0;exitX=1;exitY=0.3333333333333333;exitDx=0;exitDy=0;exitPerimeter=0;entryX=0;entryY=0.5;entryDx=0;entryDy=0;" edge="1" parent="1" source="Yw1VdwutxBJmgak6ayX9-1" target="Yw1VdwutxBJmgak6ayX9-6">
          <mxGeometry width="50" height="50" relative="1" as="geometry">
            <mxPoint x="130" y="440" as="sourcePoint" />
            <mxPoint x="180" y="390" as="targetPoint" />
          </mxGeometry>
        </mxCell>
        <mxCell id="Yw1VdwutxBJmgak6ayX9-12" value="" style="endArrow=classic;html=1;rounded=0;exitX=1;exitY=0.3333333333333333;exitDx=0;exitDy=0;exitPerimeter=0;entryX=0;entryY=0.5;entryDx=0;entryDy=0;" edge="1" parent="1" source="Yw1VdwutxBJmgak6ayX9-1" target="Yw1VdwutxBJmgak6ayX9-7">
          <mxGeometry width="50" height="50" relative="1" as="geometry">
            <mxPoint x="140" y="430" as="sourcePoint" />
            <mxPoint x="190" y="380" as="targetPoint" />
          </mxGeometry>
        </mxCell>
        <mxCell id="Yw1VdwutxBJmgak6ayX9-14" value="&lt;font style=&quot;font-size: 14px;&quot;&gt;禁用用户&lt;/font&gt;" style="ellipse;whiteSpace=wrap;html=1;" vertex="1" parent="1">
          <mxGeometry x="560" y="-20" width="150" height="70" as="geometry" />
        </mxCell>
        <mxCell id="Yw1VdwutxBJmgak6ayX9-15" value="&lt;font style=&quot;font-size: 14px;&quot;&gt;查找用户&lt;/font&gt;" style="ellipse;whiteSpace=wrap;html=1;" vertex="1" parent="1">
          <mxGeometry x="560" y="60" width="150" height="70" as="geometry" />
        </mxCell>
        <mxCell id="Yw1VdwutxBJmgak6ayX9-16" value="&lt;font style=&quot;font-size: 14px;&quot;&gt;添加科、属、种&lt;/font&gt;" style="ellipse;whiteSpace=wrap;html=1;" vertex="1" parent="1">
          <mxGeometry x="560" y="140" width="150" height="70" as="geometry" />
        </mxCell>
        <mxCell id="Yw1VdwutxBJmgak6ayX9-17" value="&lt;font style=&quot;font-size: 14px;&quot;&gt;修改、删除物种信息&lt;/font&gt;" style="ellipse;whiteSpace=wrap;html=1;" vertex="1" parent="1">
          <mxGeometry x="560" y="220" width="150" height="70" as="geometry" />
        </mxCell>
        <mxCell id="Yw1VdwutxBJmgak6ayX9-18" value="&lt;font style=&quot;font-size: 14px;&quot;&gt;发布活动&lt;/font&gt;" style="ellipse;whiteSpace=wrap;html=1;" vertex="1" parent="1">
          <mxGeometry x="560" y="300" width="150" height="70" as="geometry" />
        </mxCell>
        <mxCell id="Yw1VdwutxBJmgak6ayX9-19" value="&lt;font style=&quot;font-size: 14px;&quot;&gt;添加活动&lt;/font&gt;" style="ellipse;whiteSpace=wrap;html=1;" vertex="1" parent="1">
          <mxGeometry x="560" y="380" width="150" height="70" as="geometry" />
        </mxCell>
        <mxCell id="Yw1VdwutxBJmgak6ayX9-20" value="&lt;font style=&quot;font-size: 14px;&quot;&gt;添加商品&lt;/font&gt;" style="ellipse;whiteSpace=wrap;html=1;" vertex="1" parent="1">
          <mxGeometry x="560" y="460" width="150" height="70" as="geometry" />
        </mxCell>
        <mxCell id="Yw1VdwutxBJmgak6ayX9-21" value="&lt;font style=&quot;font-size: 14px;&quot;&gt;上架、下架商品&lt;/font&gt;" style="ellipse;whiteSpace=wrap;html=1;" vertex="1" parent="1">
          <mxGeometry x="560" y="540" width="150" height="70" as="geometry" />
        </mxCell>
        <mxCell id="Yw1VdwutxBJmgak6ayX9-22" value="&lt;font style=&quot;font-size: 14px;&quot;&gt;&amp;lt;&amp;lt;include&amp;gt;&amp;gt;&lt;/font&gt;" style="endArrow=open;endSize=12;dashed=1;html=1;rounded=0;exitX=1;exitY=0.5;exitDx=0;exitDy=0;entryX=0;entryY=0.5;entryDx=0;entryDy=0;" edge="1" parent="1" source="Yw1VdwutxBJmgak6ayX9-4" target="Yw1VdwutxBJmgak6ayX9-14">
          <mxGeometry width="160" relative="1" as="geometry">
            <mxPoint x="160" y="480" as="sourcePoint" />
            <mxPoint x="320" y="480" as="targetPoint" />
          </mxGeometry>
        </mxCell>
        <mxCell id="Yw1VdwutxBJmgak6ayX9-23" value="&lt;font style=&quot;font-size: 14px;&quot;&gt;&amp;lt;&amp;lt;include&amp;gt;&amp;gt;&lt;/font&gt;" style="endArrow=open;endSize=12;dashed=1;html=1;rounded=0;exitX=1;exitY=0.5;exitDx=0;exitDy=0;entryX=0;entryY=0.5;entryDx=0;entryDy=0;" edge="1" parent="1" source="Yw1VdwutxBJmgak6ayX9-4" target="Yw1VdwutxBJmgak6ayX9-15">
          <mxGeometry width="160" relative="1" as="geometry">
            <mxPoint x="424" y="80" as="sourcePoint" />
            <mxPoint x="570" y="35" as="targetPoint" />
          </mxGeometry>
        </mxCell>
        <mxCell id="Yw1VdwutxBJmgak6ayX9-24" value="&lt;font style=&quot;font-size: 14px;&quot;&gt;&amp;lt;&amp;lt;include&amp;gt;&amp;gt;&lt;/font&gt;" style="endArrow=open;endSize=12;dashed=1;html=1;rounded=0;exitX=1;exitY=0.5;exitDx=0;exitDy=0;entryX=0;entryY=0.5;entryDx=0;entryDy=0;" edge="1" parent="1" source="Yw1VdwutxBJmgak6ayX9-5" target="Yw1VdwutxBJmgak6ayX9-16">
          <mxGeometry width="160" relative="1" as="geometry">
            <mxPoint x="434" y="90" as="sourcePoint" />
            <mxPoint x="580" y="45" as="targetPoint" />
          </mxGeometry>
        </mxCell>
        <mxCell id="Yw1VdwutxBJmgak6ayX9-25" value="&lt;font style=&quot;font-size: 14px;&quot;&gt;&amp;lt;&amp;lt;include&amp;gt;&amp;gt;&lt;/font&gt;" style="endArrow=open;endSize=12;dashed=1;html=1;rounded=0;exitX=1;exitY=0.5;exitDx=0;exitDy=0;entryX=0;entryY=0.5;entryDx=0;entryDy=0;" edge="1" parent="1" source="Yw1VdwutxBJmgak6ayX9-5" target="Yw1VdwutxBJmgak6ayX9-17">
          <mxGeometry width="160" relative="1" as="geometry">
            <mxPoint x="444" y="100" as="sourcePoint" />
            <mxPoint x="590" y="55" as="targetPoint" />
          </mxGeometry>
        </mxCell>
        <mxCell id="Yw1VdwutxBJmgak6ayX9-26" value="&lt;font style=&quot;font-size: 14px;&quot;&gt;&amp;lt;&amp;lt;include&amp;gt;&amp;gt;&lt;/font&gt;" style="endArrow=open;endSize=12;dashed=1;html=1;rounded=0;exitX=1;exitY=0.5;exitDx=0;exitDy=0;entryX=0;entryY=0.5;entryDx=0;entryDy=0;" edge="1" parent="1" source="Yw1VdwutxBJmgak6ayX9-6" target="Yw1VdwutxBJmgak6ayX9-18">
          <mxGeometry width="160" relative="1" as="geometry">
            <mxPoint x="454" y="110" as="sourcePoint" />
            <mxPoint x="600" y="65" as="targetPoint" />
          </mxGeometry>
        </mxCell>
        <mxCell id="Yw1VdwutxBJmgak6ayX9-27" value="&lt;font style=&quot;font-size: 14px;&quot;&gt;&amp;lt;&amp;lt;include&amp;gt;&amp;gt;&lt;/font&gt;" style="endArrow=open;endSize=12;dashed=1;html=1;rounded=0;exitX=1;exitY=0.5;exitDx=0;exitDy=0;entryX=0;entryY=0.5;entryDx=0;entryDy=0;" edge="1" parent="1" source="Yw1VdwutxBJmgak6ayX9-6" target="Yw1VdwutxBJmgak6ayX9-19">
          <mxGeometry width="160" relative="1" as="geometry">
            <mxPoint x="464" y="120" as="sourcePoint" />
            <mxPoint x="610" y="75" as="targetPoint" />
          </mxGeometry>
        </mxCell>
        <mxCell id="Yw1VdwutxBJmgak6ayX9-28" value="&lt;font style=&quot;font-size: 14px;&quot;&gt;&amp;lt;&amp;lt;include&amp;gt;&amp;gt;&lt;/font&gt;" style="endArrow=open;endSize=12;dashed=1;html=1;rounded=0;exitX=1;exitY=0.5;exitDx=0;exitDy=0;entryX=0;entryY=0.5;entryDx=0;entryDy=0;" edge="1" parent="1" source="Yw1VdwutxBJmgak6ayX9-7" target="Yw1VdwutxBJmgak6ayX9-20">
          <mxGeometry width="160" relative="1" as="geometry">
            <mxPoint x="474" y="130" as="sourcePoint" />
            <mxPoint x="620" y="85" as="targetPoint" />
          </mxGeometry>
        </mxCell>
        <mxCell id="Yw1VdwutxBJmgak6ayX9-29" value="&lt;font style=&quot;font-size: 14px;&quot;&gt;&amp;lt;&amp;lt;include&amp;gt;&amp;gt;&lt;/font&gt;" style="endArrow=open;endSize=12;dashed=1;html=1;rounded=0;exitX=1;exitY=0.5;exitDx=0;exitDy=0;entryX=0;entryY=0.5;entryDx=0;entryDy=0;" edge="1" parent="1" source="Yw1VdwutxBJmgak6ayX9-7" target="Yw1VdwutxBJmgak6ayX9-21">
          <mxGeometry width="160" relative="1" as="geometry">
            <mxPoint x="484" y="140" as="sourcePoint" />
            <mxPoint x="630" y="95" as="targetPoint" />
          </mxGeometry>
        </mxCell>
      </root>
    </mxGraphModel>
  </diagram>
</mxfile>
